<?xml version="1.0" encoding="utf-8"?>
<!-- Generator: Adobe Illustrator 25.2.0, SVG Export Plug-In . SVG Version: 6.00 Build 0)  -->
<svg version="1.1" id="Layer_1" xmlns="http://www.w3.org/2000/svg" xmlns:xlink="http://www.w3.org/1999/xlink" x="0px" y="0px"
	 viewBox="0 0 674.3 956.8" style="enable-background:new 0 0 674.3 956.8;" xml:space="preserve">
<path d="M69.5,203.4C22,203.4,0,185,0,145.8V57.6C0,18.4,22,0,69.5,0h70.6c7.1,0,10.2,3.1,10.2,10.2v34.2c0,7-3.1,10.1-10.2,10.1
	H81.4c-11.9,0-17.3,4.5-17.3,14.1v67.6c0,9.6,4.3,13.8,13,13.8h27.4v-44.1c0-7,3.1-10.1,10.2-10.1h43.8c7,0,10.1,3.1,10.1,10.1v87.3
	c0,7.1-3.1,10.2-10.1,10.2L69.5,203.4z M213.3,203.4c-7.1,0-10.2-3.1-10.2-10.2v-183c0-7.1,3.1-10.2,10.2-10.2h131.1
	c7,0,10.1,3.1,10.1,10.2v33c0,7.1-3.1,10.2-10.1,10.2h-78v21.7h55.1c7.1,0,10.2,3.1,10.2,10.2v30.2c0,7.1-3.1,10.2-10.2,10.2h-55.1
	V150h78c7,0,10.1,3.1,10.1,10.2v33c0,7.1-3.1,10.2-10.1,10.2H213.3z M398.1,203.4c-7.1,0-10.2-3.1-10.2-10.2v-183
	C387.9,3.1,391,0,398.1,0h29.3c7.4,0,11.9,2,16.7,7.6l54.8,62.7V10.2C498.9,3.1,502,0,509.1,0h42.4c7,0,10.1,3.1,10.1,10.2v183
	c0,7.1-3.1,10.2-10.1,10.2h-42.4c-7.1,0-10.2-3.1-10.2-10.2v-34.7L450.6,100v93.2c0,7.1-3.1,10.2-10.2,10.2H398.1z M606.8,203.4
	c-7,0-10.1-3.1-10.1-10.2v-57.3c0-7.4,3.1-10.2,10.1-10.2h57.1c7.1,0,10.2,2.8,10.2,10.2v57.3c0,7.1-3.1,10.2-10.2,10.2H606.8z
	 M337.4,490.5c-51.7,0-60.4,14.5-60.4,34.2v93.9h120.1v-93.9C397.1,505,388.4,490.5,337.4,490.5z"/>
<path d="M611.1,282.7H63.3c-34.9,0-63.2,28.3-63.2,63.2v547.7c0,34.9,28.3,63.2,63.2,63.2c0,0,0,0,0,0h547.8
	c34.9,0,63.2-28.3,63.2-63.2l0,0V345.9C674.3,311,646,282.7,611.1,282.7L611.1,282.7L611.1,282.7z M560.2,860.3
	c0,18.2-8,26.2-26.2,26.2H423.3c-18.2,0-26.2-8-26.2-26.2V751.8H277v108.5c0,18.2-8,26.2-26.2,26.2h-107c-18.2,0-26.3-8-26.3-26.2
	V499.9c0-88,40.1-148.5,220.6-148.5s222.1,60.5,222.1,148.5L560.2,860.3z"/>
</svg>
