<svg xmlns="http://www.w3.org/2000/svg" width="1243" height="331.1" viewBox="0 0 1243 331.1"><defs><linearGradient id="a" x1="903.86" x2="1331.72" y1="4.17" y2="401.91" gradientUnits="userSpaceOnUse"><stop offset=".04" stop-color="#dd2b17"/><stop offset=".09" stop-color="#e74e54"/><stop offset=".14" stop-color="#f16f8e"/><stop offset=".18" stop-color="#f783b2"/><stop offset=".2" stop-color="#f98bc0"/><stop offset=".24" stop-color="#fb9a8e"/><stop offset=".32" stop-color="#feb929"/><stop offset=".35" stop-color="#ffc500"/><stop offset=".38" stop-color="#edc50f"/><stop offset=".43" stop-color="#bec737"/><stop offset=".5" stop-color="#82c86a"/><stop offset=".52" stop-color="#7cc76f"/><stop offset=".54" stop-color="#6bc47d"/><stop offset=".57" stop-color="#4fbf94"/><stop offset=".6" stop-color="#29b7b4"/><stop offset=".62" stop-color="#0bb2cc"/><stop offset=".64" stop-color="#0aa3cc"/><stop offset=".69" stop-color="#067bcc"/><stop offset=".76" stop-color="#013bcc"/><stop offset=".77" stop-color="#03c"/></linearGradient></defs><path fill="#333132" d="M89.4 295.8c-61 0-89.4-23.6-89.4-74.1V108.3c0-50.6 28.4-74.2 89.4-74.2h90.9c9.1 0 13.1 4 13.1 13.1v44c0 9.1-4 13.1-13.1 13.1h-75.6c-15.3 0-22.2 5.8-22.2 18.1v86.9c0 12.4 5.5 17.8 16.7 17.8h35.3v-56.7c0-9.1 4-13.1 13.1-13.1h56.3c9.1 0 13.1 4 13.1 13.1v112.4c0 9-4 13-13.1 13zm185.1 0c-9.1 0-13.1-4-13.1-13V47.2c0-9.1 4-13.1 13.1-13.1h168.7c9.1 0 13.1 4 13.1 13.1v42.5c0 9.1-4 13.1-13.1 13.1H342.8v28h70.9c9.1 0 13.1 4 13.1 13.1v38.9c0 9.1-4 13.1-13.1 13.1h-70.9v31.2h100.4c9.1 0 13.1 4 13.1 13.1v42.6c0 9-4 13-13.1 13zm237.8 0c-9.1 0-13.1-4-13.1-13V47.2c0-9.1 4-13.1 13.1-13.1h37.8c9.4 0 15.2 2.5 21.4 9.8l70.6 80.7V47.2c0-9.1 4-13.1 13-13.1h54.6c9.1 0 13.1 4 13.1 13.1v235.6c0 9-4 13-13.1 13h-54.6c-9 0-13-4-13-13V238l-62.2-75.2v120c0 9-4 13-13.1 13zm268.6 0c-9 0-13-4-13-13V209c0-9.5 4-13.1 13-13.1h73.5c9.1 0 13.1 3.6 13.1 13.1v73.8c0 9-4 13-13.1 13z"/><rect width="331.1" height="331.06" x="911.9" fill="url(#a)" rx="31"/><path fill="#fff" d="M1035 296.5h-52.6c-8.9 0-12.8-3.9-12.8-12.8v-177c0-43.3 19.6-72.9 108.3-72.9s109 29.6 109 72.9v177c0 8.9-3.9 12.8-12.8 12.8h-54.4c-8.9 0-12.8-3.9-12.8-12.8v-53.3h-59v53.3c0 8.9-4 12.8-12.9 12.8zm12.9-131.5h59v-46.1c0-9.7-4.3-16.9-29.4-16.9s-29.6 7.2-29.6 16.9z"/></svg>