<svg xmlns="http://www.w3.org/2000/svg" width="674.3" height="956.8" viewBox="0 0 674.3 956.8"><linearGradient id="a" x1="-16.28" x2="855.02" y1="291.17" y2="1101.11" gradientUnits="userSpaceOnUse"><stop offset=".04" stop-color="#dd2b17"/><stop offset=".09" stop-color="#e74e54"/><stop offset=".14" stop-color="#f16f8e"/><stop offset=".18" stop-color="#f783b2"/><stop offset=".2" stop-color="#f98bc0"/><stop offset=".24" stop-color="#fb9a8e"/><stop offset=".32" stop-color="#feb929"/><stop offset=".35" stop-color="#ffc500"/><stop offset=".38" stop-color="#edc50f"/><stop offset=".43" stop-color="#bec737"/><stop offset=".5" stop-color="#82c86a"/><stop offset=".52" stop-color="#7cc76f"/><stop offset=".54" stop-color="#6bc47d"/><stop offset=".57" stop-color="#4fbf94"/><stop offset=".6" stop-color="#29b7b4"/><stop offset=".62" stop-color="#0bb2cc"/><stop offset=".64" stop-color="#0aa3cc"/><stop offset=".69" stop-color="#067bcc"/><stop offset=".76" stop-color="#013bcc"/><stop offset=".77" stop-color="#03c"/></linearGradient><path fill="#333132" d="M69.5 203.4C22 203.4 0 185 0 145.8V57.6C0 18.4 22 0 69.5 0h70.6c7.1 0 10.2 3.1 10.2 10.2v34.2c0 7-3.1 10.1-10.2 10.1H81.4c-11.9 0-17.3 4.5-17.3 14.1v67.6c0 9.6 4.3 13.8 13 13.8h27.4v-44.1c0-7 3.1-10.1 10.2-10.1h43.8c7 0 10.1 3.1 10.1 10.1v87.3c0 7.1-3.1 10.2-10.1 10.2zm143.8 0c-7.1 0-10.2-3.1-10.2-10.2v-183c0-7.1 3.1-10.2 10.2-10.2h131.1c7 0 10.1 3.1 10.1 10.2v33c0 7.1-3.1 10.2-10.1 10.2h-78v21.7h55.1c7.1 0 10.2 3.1 10.2 10.2v30.2c0 7.1-3.1 10.2-10.2 10.2h-55.1V150h78c7 0 10.1 3.1 10.1 10.2v33c0 7.1-3.1 10.2-10.1 10.2zm184.8 0c-7.1 0-10.2-3.1-10.2-10.2v-183C387.9 3.1 391 0 398.1 0h29.3c7.4 0 11.9 2 16.7 7.6l54.8 62.7V10.2C498.9 3.1 502 0 509.1 0h42.4c7 0 10.1 3.1 10.1 10.2v183c0 7.1-3.1 10.2-10.1 10.2h-42.4c-7.1 0-10.2-3.1-10.2-10.2v-34.7L450.6 100v93.2c0 7.1-3.1 10.2-10.2 10.2zm208.7 0c-7 0-10.1-3.1-10.1-10.2v-57.3c0-7.4 3.1-10.2 10.1-10.2h57.1c7.1 0 10.2 2.8 10.2 10.2v57.3c0 7.1-3.1 10.2-10.2 10.2z"/><rect width="674.2" height="674.15" x=".1" y="282.7" fill="url(#a)" rx="63.2"/><path fill="#fff" d="M250.8 886.5h-107c-18.2 0-26.3-8-26.3-26.2V499.9c0-88 40.1-148.5 220.6-148.5s222.1 60.5 222.1 148.5v360.4c0 18.2-8 26.2-26.2 26.2H423.3c-18.2 0-26.2-8-26.2-26.2V751.8H277v108.5c0 18.2-8 26.2-26.2 26.2zM277 618.6h120.1v-93.9c0-19.7-8.7-34.2-59.7-34.2S277 505 277 524.7z"/></svg>