<svg xmlns="http://www.w3.org/2000/svg"><symbol id="adobe-portfolio" viewBox="0 0 400 400"><path d="M137.5 124.1c-7.8 0-15.3.3-18.7.6v75.9h-.4c4.7.3 8.2.3 16 .3 22.8 0 44.4-8.1 44.4-39 0-25-15-37.8-41.3-37.8z"/><path d="M364.7 0H35.3A35.4 35.4 0 0 0 0 35.3v329.4A35.4 35.4 0 0 0 35.3 400h329.4a35.4 35.4 0 0 0 35.3-35.3V35.3A35.4 35.4 0 0 0 364.7 0zm-231 232.2c-7.5 0-10-.3-15.3-.3v75.3c0 1.6-.6 2.2-2.2 2.2H85.9c-1.5 0-2.2-.6-2.2-2.2v-211h-.3c0-1.2.3-2.1 1.9-2.1 12.8-.7 31.3-1 50.6-1 54.4 0 78.2 29.7 78.2 68.1 0 49.7-36 71-80.4 71zm182.9-111.3c0 1.6-.7 2.2-2.2 1.9a43.8 43.8 0 0 0-8.8-.9c-11.2 0-16.8 8.1-16.8 23.7v10h25.6c1.5 0 1.8.3 1.8 1.6v26.9c0 1.5-.3 1.8-1.8 2.2h-25.6v120.9c0 1.2-.4 2.2-2.2 2.2h-30.7a2 2 0 0 1-2.1-2.2V186.6h-18.5v.3c-1.2 0-1.5-.7-1.5-2.2v-26.9c0-1.6.3-1.9 1.5-1.9h18.1v-10c0-12.2 1.9-22.1 6.6-31.2 8.1-16.6 21.9-24.1 41.6-24.1 5.9 0 10 .3 13.1 1.6s1.9 1.2 1.9 2.8z"/></symbol><symbol id="dribble" viewBox="0 0 400 400"><path d="M156.9 114.7a95.4 95.4 0 0 0-49.7 62.8c32.5-.3 60.6-3.7 84.1-10.6a443.7 443.7 0 0 0-34.4-52.2zm101.5 9.4a93.8 93.8 0 0 0-81.8-16.9 442.8 442.8 0 0 1 33.7 52.5c20.3-8.8 36.6-20.6 48.1-35.6zM141.3 275.6a94.7 94.7 0 0 0 93.1 13.8 391.5 391.5 0 0 0-19.7-72.2c-30.3 9.1-54.4 28.4-73.4 58.4zm65.6-77.2c-2.2-4.6-4.4-9.3-6.6-13.7-26.9 8.4-59.1 12.8-96.2 12.8v2.5a95.5 95.5 0 0 0 22.1 61.2c21-31.5 48.2-52.4 80.7-62.8z"/><path d="M364.7 0H35.3A35.4 35.4 0 0 0 0 35.3v329.4A35.4 35.4 0 0 0 35.3 400h329.4a35.4 35.4 0 0 0 35.3-35.3V35.3A35.4 35.4 0 0 0 364.7 0zM200 316.2A116.3 116.3 0 1 1 316.2 200 116.2 116.2 0 0 1 200 316.2z"/><path d="M219.4 177.5c2.5 5.3 5 10.9 7.5 16.3 20.9-3.8 43.7-3.5 68.7.6a95.6 95.6 0 0 0-22.5-56.6c-13.4 16.9-31.2 30-53.7 39.7zm15.3 35.6a376.5 376.5 0 0 1 18.4 66.9 95.1 95.1 0 0 0 41.3-64.7c-21.6-4.1-41.6-5-59.7-2.2z"/></symbol><symbol id="close" viewBox="0 0 400 400"><path d="M249 199.6L389.9 58.7a34.3 34.3 0 0 0 0-48.7 34.4 34.4 0 0 0-48.6 0l-141 141L59.4 10a34.5 34.5 0 0 0-48.7 0 34.5 34.5 0 0 0 0 48.7l141 140.9-141 141a34.4 34.4 0 0 0 0 48.6 34.3 34.3 0 0 0 48.7 0l140.9-140.9 141 140.9a34.2 34.2 0 0 0 48.6 0 34.2 34.2 0 0 0 0-48.6z"/></symbol><symbol id="hamburger" viewBox="0 0 400 400"><rect width="399.1" height="68.82" y="14.8" rx="29.7"/><rect width="399.1" height="68.82" y="165.6" rx="29.7"/><rect width="399.1" height="68.82" y="316.4" rx="29.7"/></symbol><symbol id="instagram" viewBox="0 0 400 400"><path d="M255.3 88.7c-14.4-.6-18.7-.9-55.3-.9s-40.9 0-55.3.9c-37.2 1.6-54.4 19.4-56.3 56.3-.6 14.4-.9 18.8-.9 55.3s.3 41 .9 55.3c1.6 36.9 18.8 54.4 56.3 56.3 14.4.6 18.7.9 55.3.9s40.9 0 55.3-.9c37.2-1.6 54.4-19.4 56.3-56.3.6-14.3.9-18.7.9-55.3s0-40.9-.9-55.3c-1.9-37.2-19.1-54.7-56.3-56.3zM200 270.3a70.3 70.3 0 1 1 70.3-70.3 70.3 70.3 0 0 1-70.3 70.3zm72.2-132.5a14.1 14.1 0 1 1 14-14.1 14 14 0 0 1-14 14.1z"/><path d="M364.7 0H35.3A35.4 35.4 0 0 0 0 35.3v329.4A35.4 35.4 0 0 0 35.3 400h329.4a35.4 35.4 0 0 0 35.3-35.3V35.3A35.4 35.4 0 0 0 364.7 0zm-28.8 256.6c-2.1 49.7-30 77.2-79.6 79.6-14.7.7-19.4 1-56.6 1s-41.9-.3-56.6-1c-49.3-2.4-76.8-29.9-79-79.6-.7-14.7-1-19.4-1-56.6s0-41.9 1-56.6c2.2-49.6 29.7-77.1 79.3-79.3 14.7-.7 19.4-1 56.6-1s41.9 0 56.6 1c49.6 2.2 77.2 30 79.6 79.7.7 14.6 1 19.3 1 56.5s-.6 41.6-1.3 56.3z"/><path d="M200 154.4a45.6 45.6 0 1 0 45.6 45.6 45.5 45.5 0 0 0-45.6-45.6z"/></symbol><symbol id="facebook" viewBox="0 0 400 400"><path d="M364.7 0H35.3A35.4 35.4 0 0 0 0 35.3v329.4A35.4 35.4 0 0 0 35.3 400h329.4a35.4 35.4 0 0 0 35.3-35.3V35.3A35.4 35.4 0 0 0 364.7 0zm-90 107.8h-21.9c-21.6 0-28.4 13.4-28.4 27.2v32.8h48.4l-7.8 50.6h-40.6v120.4h-54.7V218.4h-44.4v-50.6h44.4v-38.4c0-43.8 25.9-67.8 65.9-67.8a269.7 269.7 0 0 1 39.1 3.4z"/></symbol><symbol id="twitter" viewBox="0 0 400 400"><path d="M364.7 0H35.3A35.3 35.3 0 0 0 0 35.3v329.4A35.3 35.3 0 0 0 35.3 400h329.4a35.3 35.3 0 0 0 35.3-35.3V35.3A35.3 35.3 0 0 0 364.7 0zM312 145.9c3.4 76.6-53.7 162-154.8 162a154.6 154.6 0 0 1-83.5-24.5 109.6 109.6 0 0 0 80.6-22.5 54.7 54.7 0 0 1-50.9-37.9 53.4 53.4 0 0 0 24.6-.9c-26.2-5.3-44.2-28.9-43.7-54.1a54.6 54.6 0 0 0 24.7 6.8 54.5 54.5 0 0 1-16.8-72.7A154.4 154.4 0 0 0 204.4 159a54.5 54.5 0 0 1 92.8-49.7 108.9 108.9 0 0 0 34.6-13.2 54.3 54.3 0 0 1-23.9 30.1 106.8 106.8 0 0 0 31.3-8.6 110.9 110.9 0 0 1-27.2 28.3z"/></symbol><symbol id="linkedin" viewBox="0 0 400 400"><path d="M364.7 0H35.3A35.4 35.4 0 0 0 0 35.3v329.4A35.4 35.4 0 0 0 35.3 400h329.4a35.4 35.4 0 0 0 35.3-35.3V35.3A35.4 35.4 0 0 0 364.7 0zM127.2 331.6h-50V148.4h50zm-25-204.4a29.1 29.1 0 0 1-29.1-29.4 29.1 29.1 0 1 1 29.1 29.4zm225 204.4h-50v-93.5c0-56.2-66.6-51.9-66.6 0v93.5h-50V148.4h50v29.4c23.1-43.1 116.6-46.2 116.6 41.3z"/></symbol><symbol id="vimeo" viewBox="0 0 400 400"><path d="M364.7 0H35.3A35.4 35.4 0 0 0 0 35.3v329.4A35.4 35.4 0 0 0 35.3 400h329.4a35.4 35.4 0 0 0 35.3-35.3V35.3A35.4 35.4 0 0 0 364.7 0zm-23.8 121.9c-3.1 17.2-25 77.5-64 130.6-17.2 22.5-37.2 44.4-63.1 59.7-9.4 5.6-28.2 12.8-40.7 7.5-24.4-10.3-33.1-52.8-40.3-80.9-4-16.9-8.1-32.6-13.1-47.2-3.8-11-5.6-21.9-11.6-32.2-9.7-16.6-23.7-.7-38.7-2.8-6.3-1-7.5-7.5-11.6-11.6v-1.6c21.6-17.2 40.3-37.8 65-52.5 7.8-4.7 20.9-9.3 31.9-6.2s18.1 16.2 21.5 27.5c4.1 12.8 6.3 28.7 8.5 41.2 3.7 22.5 2.5 56.3 19 73.8 18.5 19.7 32.2-7.5 39.7-21.6 6.6-11.8 12.2-24.4 13.5-35.6 2.5-27.2-10.7-30.9-35.3-29.1 14-43.4 55.3-61.5 67.5-63.4 15-2.2 36.8-1.9 47.1 11.3 6.9 9 6.9 21.2 4.7 33.1z"/></symbol><symbol id="icon" viewBox="0 0 282.6 399.7"><path d="M30 85C10.2 85 1 77.3 1 60.9V24.1C1 7.7 10.2 0 30 0h29.5c3 0 4.3 1.3 4.3 4.3v14.2c0 3-1.3 4.3-4.3 4.3H35c-5 0-7.2 1.8-7.2 5.9v28.2c0 4 1.8 5.8 5.4 5.8h11.4V44.2c0-2.9 1.3-4.2 4.3-4.2h18.3c2.9 0 4.2 1.3 4.2 4.2v36.5c0 3-1.3 4.3-4.2 4.3zm60.1 0c-3 0-4.3-1.3-4.3-4.3V4.3c0-3 1.3-4.3 4.3-4.3h54.8c2.9 0 4.2 1.3 4.2 4.3V18c0 3-1.3 4.3-4.2 4.3h-32.6v9.1h23c3 0 4.3 1.3 4.3 4.2v12.6c0 3-1.3 4.3-4.3 4.3h-23v10.2h32.6c2.9 0 4.2 1.3 4.2 4.2v13.8c0 3-1.3 4.3-4.2 4.3zm77.2 0c-3 0-4.3-1.3-4.3-4.3V4.3c0-3 1.3-4.3 4.3-4.3h12.2a8 8 0 0 1 7 3.2l22.9 26.2V4.3c0-3 1.3-4.3 4.3-4.3h17.7c2.9 0 4.2 1.3 4.2 4.3v76.4c0 3-1.3 4.3-4.2 4.3h-17.7c-3 0-4.3-1.3-4.3-4.3V66.2l-20.2-24.4v38.9c0 3-1.3 4.3-4.2 4.3zm87.2 0c-3 0-4.3-1.3-4.3-4.3V56.8c0-3.1 1.3-4.3 4.3-4.3h23.8c3 0 4.3 1.2 4.3 4.3v23.9c0 3-1.3 4.3-4.3 4.3zM141.9 204.9c-21.6 0-25.2 6-25.2 14.3v39.2h50.2v-39.2c0-8.3-3.7-14.3-25-14.3z"/><path d="M255.2 118.1H26.4A26.4 26.4 0 0 0 0 144.5v228.8a26.4 26.4 0 0 0 26.4 26.4h228.8a26.4 26.4 0 0 0 26.4-26.4V144.5a26.4 26.4 0 0 0-26.4-26.4zM234 359.4c0 7.6-3.4 10.9-11 10.9h-46.2c-7.6 0-11-3.3-11-10.9V314h-50.1v45.4c0 7.6-3.4 10.9-11 10.9H60c-7.6 0-11-3.3-11-10.9V208.8c0-36.7 16.8-62 92.2-62s92.8 25.3 92.8 62z"/></symbol><symbol id="github" viewBox="0 0 400 400"><path d="M364.7 0H35.3A35.4 35.4 0 0 0 0 35.3v329.4A35.4 35.4 0 0 0 35.3 400h111.9a8.7 8.7 0 0 0 3.7-7.6v-34.8c0-3.7-.2-3.8-3.8-3.2s-8.6 1.5-12.9 1.8c-9.4.6-18.7-.3-27.5-4-10.5-4.4-18.6-11.6-23.1-22.5s-11.1-22.4-22.5-29.1a22.5 22.5 0 0 1-5.9-5.2c-1.4-1.8-.8-3.7 1.5-4.3a18.4 18.4 0 0 1 7.3-.7 38.9 38.9 0 0 1 10.5 3.3c7.4 3.4 13 8.9 17.3 15.7 3.1 4.9 6.2 9.7 10.6 13.6s12.1 8.3 19.4 8.9 16.8.5 24.9-2.7c3.2-1.3 5.1-2.6 5.7-6 1.5-8.1 4.6-15.3 10.6-21.2 1.7-1.6 1.3-2.3-.9-2.7-4.9-.8-9.9-1.4-14.7-2.4-14.6-3-28.5-7.6-40.7-16.4a71.2 71.2 0 0 1-25.4-33 119.8 119.8 0 0 1-7.2-53.7 67.2 67.2 0 0 1 7.7-27.1 131.5 131.5 0 0 1 10.6-16.1 5.2 5.2 0 0 0 .8-5.1A64.7 64.7 0 0 1 90 127a78.4 78.4 0 0 1 4.6-27.1c1.5-4.4 2.6-4.9 6.6-4.2a104.3 104.3 0 0 1 18.3 4.6c9.9 3.5 19.1 8.9 27.9 14.7a6.4 6.4 0 0 0 5.5 1c5.5-1.2 10.9-2.8 16.5-3.5 8.7-1.2 17.5-2.1 26.2-2.6 5.6-.3 11.3.5 17 .6 10.9.3 21.6 2.4 32.2 4.9 3.5.8 6.5 1.1 9.5-1.5s4.7-2.8 7.1-4.2a101.1 101.1 0 0 1 30-12.8 61.2 61.2 0 0 1 9.7-1.3c1.9-.2 3.1.8 3.8 2.7 3.6 8.9 5 18.2 5.2 27.7a60.7 60.7 0 0 1-2.4 16.3c-1.2 4.3-2 8 2.3 11a11.8 11.8 0 0 1 1.9 2.5c8.2 11.2 13.3 23.8 14.2 37.5s.2 29.8-3.9 44.2-9.7 25.3-19.5 35.2-25.2 17.9-40.5 21.8c-8 2-16.2 3.2-24.3 4.8-2.5.4-2.6.6-.8 2.4a35.8 35.8 0 0 1 8.5 14.1c1.9 5.9 3.4 11.8 3.2 18.1-.1 2.2.5 4.4.5 6.6s-.5 4.5-.6 6.7v44.3a10.3 10.3 0 0 0 4.2 8.5h111.8a35.4 35.4 0 0 0 35.3-35.3V35.3A35.4 35.4 0 0 0 364.7 0z"/><path d="M108.9 335.1c.1 2.2 2.6 4.1 5.5 4.1s4.1-1.1 4-3.2-2.6-4.3-5.4-4.2-4.1 1.6-4.1 3.3zm31.7.4a4 4 0 0 0 .5 2.9c1.6 1.7 3.5 1.7 5.7.9a4 4 0 0 0 3.1-4c.1-1.4-2-2.7-4.2-2.7s-4.7 1.3-5.1 2.9zM96 326.4a4.6 4.6 0 0 0 5 4.8c2.3 0 3.2-.9 3.2-3s-3.3-5.2-5.7-5.1-2.5 1.6-2.5 3.3zm33.4 8.5a3.9 3.9 0 0 0-1.7.2c-.9.6-2.1 1.5-2.2 2.3a5 5 0 0 0 1.3 3.4c1.3 1.3 5 1.1 6.2-.2a5.7 5.7 0 0 0 1.4-3.4c-.1-1.6-1.5-2.3-3.2-2.3zm-42.9-20a4.8 4.8 0 0 0 4.2 5.2c1.9.1 3-1 3.1-3.1s-2.1-4.8-4.5-5-2.7.9-2.8 2.9zm-7.9-10.5c.1 2.2 2.3 4.5 4.3 4.5s2.3-1.4 2.3-2.7-2.1-4.6-4.3-4.4a2.3 2.3 0 0 0-2.3 2.6zm-7.9-7.2c.1 1.8 1.8 3.2 4.6 3.1.4-.4 1.5-1.2 1.7-2.2s-2.2-3.4-3.7-3.2-2.6.6-2.6 2.3z"/></symbol><symbol id="alternate" viewBox="0 0 400 106.5"><path d="M28.8 95.2C9.1 95.2 0 87.6 0 71.3V34.9C0 18.6 9.1 11 28.8 11H58c2.9 0 4.2 1.3 4.2 4.2v14.1c0 3-1.3 4.3-4.2 4.3H33.7c-4.9 0-7.2 1.8-7.2 5.8v28c0 3.9 1.8 5.7 5.4 5.7h11.4V54.8c0-2.9 1.3-4.2 4.2-4.2h18.1c2.9 0 4.2 1.3 4.2 4.2V91c0 2.9-1.3 4.2-4.2 4.2zm59.5 0c-2.9 0-4.2-1.3-4.2-4.2V15.2c0-2.9 1.3-4.2 4.2-4.2h54.3c3 0 4.2 1.3 4.2 4.2v13.7c0 2.9-1.2 4.2-4.2 4.2h-32.3v9h22.8c3 0 4.2 1.3 4.2 4.2v12.5c0 3-1.2 4.2-4.2 4.2h-22.8v10.1h32.3c3 0 4.2 1.3 4.2 4.2V91c0 2.9-1.2 4.2-4.2 4.2zm76.6 0c-3 0-4.3-1.3-4.3-4.2V15.2c0-2.9 1.3-4.2 4.3-4.2H177a8.1 8.1 0 0 1 6.9 3.1l22.7 26V15.2c0-2.9 1.3-4.2 4.2-4.2h17.6c2.9 0 4.2 1.3 4.2 4.2V91c0 2.9-1.3 4.2-4.2 4.2h-17.6c-2.9 0-4.2-1.3-4.2-4.2V76.6l-20-24.2V91c0 2.9-1.3 4.2-4.2 4.2zm86.4 0c-2.9 0-4.2-1.3-4.2-4.2V67.3c0-3.1 1.3-4.3 4.2-4.3h23.6c3 0 4.3 1.2 4.3 4.3V91c0 2.9-1.3 4.2-4.3 4.2zM390 0h-86.6a9.9 9.9 0 0 0-9.9 10v86.5a9.8 9.8 0 0 0 9.9 10H390a10 10 0 0 0 10-10V10a10 10 0 0 0-10-10zm-8.1 91.3c0 2.9-1.2 4.1-4.1 4.1h-17.5c-2.8 0-4.1-1.2-4.1-4.1V74.1h-19v17.2c0 2.9-1.3 4.1-4.1 4.1h-17c-2.8 0-4.1-1.2-4.1-4.1v-57c0-13.9 6.3-23.4 34.9-23.4s35 9.5 35 23.4z"/><path d="M346.9 33.1c-8.1 0-9.5 2.3-9.5 5.4v14.8h18.9V38.5c0-3.1-1.3-5.4-9.4-5.4z"/></symbol><symbol id="logo" viewBox="0 0 400 130.8"><path d="M14.9 44.3C4.7 44.3 0 40.4 0 32V13.2C0 4.8 4.7.9 14.9.9h15a1.9 1.9 0 0 1 2.2 2.2v7.3c0 1.5-.7 2.1-2.2 2.1H17.4c-2.5 0-3.7 1-3.7 3v14.4c0 2.1.9 3 2.8 3h5.8v-9.4a1.9 1.9 0 0 1 2.2-2.2h9.4c1.5 0 2.1.7 2.1 2.2v18.6c0 1.5-.6 2.2-2.1 2.2zm30.7 0a1.9 1.9 0 0 1-2.2-2.2v-39A1.9 1.9 0 0 1 45.6.9h28c1.5 0 2.1.7 2.1 2.2v7c0 1.5-.6 2.2-2.1 2.2H56.9v4.6h11.8a1.9 1.9 0 0 1 2.2 2.2v6.4c0 1.6-.7 2.2-2.2 2.2H56.9v5.2h16.7c1.5 0 2.1.6 2.1 2.1v7.1c0 1.5-.6 2.2-2.1 2.2zm39.4 0c-1.5 0-2.1-.7-2.1-2.2v-39c0-1.5.6-2.2 2.1-2.2h6.3a4.2 4.2 0 0 1 3.6 1.6l11.7 13.4V3.1c0-1.5.6-2.2 2.1-2.2h9.1a1.9 1.9 0 0 1 2.2 2.2v39a1.9 1.9 0 0 1-2.2 2.2h-9.1c-1.5 0-2.1-.7-2.1-2.2v-7.4L96.3 22.2v19.9a1.9 1.9 0 0 1-2.2 2.2zm45.5 0a1.9 1.9 0 0 1-2.2-2.2v-39a1.9 1.9 0 0 1 2.2-2.2h28c1.5 0 2.1.7 2.1 2.2v7c0 1.5-.6 2.2-2.1 2.2h-16.7v4.6h11.8a1.9 1.9 0 0 1 2.2 2.2v6.4c0 1.6-.7 2.2-2.2 2.2h-11.8v5.2h16.7c1.5 0 2.1.6 2.1 2.1v7.1c0 1.5-.6 2.2-2.1 2.2zm39.4 0c-1.4 0-2.1-.7-2.1-2.2v-39c0-1.5.7-2.2 2.1-2.2H190c9.1 0 11.9 4.1 11.9 10.1v2.7c0 3.4-.8 5.8-3.3 6.9 4.3.5 7.3 3.7 7.3 8.7v12.8a1.9 1.9 0 0 1-2.2 2.2h-9.4c-1.5 0-2.1-.7-2.1-2.2v-9.2c0-1.8-.6-2.6-2.3-2.6h-8.5v11.8c0 1.5-.6 2.2-2.2 2.2zm11.5-24.8h4.5c2.1 0 2.7-1.3 2.7-2.9v-2c0-1.6-.6-2.8-2.7-2.8h-4.5zm41.9 24.8h-8.8a1.9 1.9 0 0 1-2.2-2.2V12.3C212.3 5 215.6 0 230.6 0S249 5 249 12.3v29.8c0 1.5-.6 2.2-2.2 2.2h-9.2c-1.4 0-2.1-.7-2.1-2.2v-9h-10v9c0 1.5-.6 2.2-2.2 2.2zm2.2-22.2h10v-7.8c0-1.6-.7-2.8-5-2.8s-5 1.2-5 2.8zm41.7 22.2a1.9 1.9 0 0 1-2.2-2.2V12.5h-8.9c-1.5 0-2.1-.6-2.1-2.1V3.1c0-1.5.6-2.2 2.1-2.2H288a1.9 1.9 0 0 1 2.2 2.2v7.3c0 1.5-.7 2.1-2.2 2.1h-8.9v29.6c0 1.5-.6 2.2-2.1 2.2zm31.1 0a1.9 1.9 0 0 1-2.2-2.2v-39a1.9 1.9 0 0 1 2.2-2.2h9.5a1.9 1.9 0 0 1 2.2 2.2v39a1.9 1.9 0 0 1-2.2 2.2zm38.2.9c-15.1 0-18.8-5-18.8-12.3V12.4C317.7 5 321.4 0 336.5 0s18.7 5 18.7 12.4v20.5c0 7.3-3.6 12.3-18.7 12.3zm0-11.7c4.4 0 5.1-1.2 5.1-2.8V14.5c0-1.5-.7-2.7-5.1-2.7s-5.1 1.2-5.1 2.7v16.2c0 1.6.8 2.8 5.1 2.8zm28.6 10.8a1.9 1.9 0 0 1-2.2-2.2v-39a1.9 1.9 0 0 1 2.2-2.2h6.2a4.1 4.1 0 0 1 3.6 1.6l11.7 13.4V3.1a1.9 1.9 0 0 1 2.2-2.2h9a1.9 1.9 0 0 1 2.2 2.2v39a1.9 1.9 0 0 1-2.2 2.2h-9a1.9 1.9 0 0 1-2.2-2.2v-7.4l-10.3-12.5v19.9a1.9 1.9 0 0 1-2.2 2.2zm-354 53.8H2.3a1.9 1.9 0 0 1-2.2-2.2V66.3C.1 59 3.4 54 18.3 54s18.4 5 18.4 12.3v29.6a1.9 1.9 0 0 1-2.2 2.2h-9.1a1.9 1.9 0 0 1-2.2-2.2V87h-9.9v8.9a1.9 1.9 0 0 1-2.2 2.2zM13.3 76h9.9v-7.7c0-1.6-.7-2.8-4.9-2.8s-5 1.2-5 2.8zm33.5 22.1a1.9 1.9 0 0 1-2.2-2.2V57.1a1.9 1.9 0 0 1 2.2-2.2h20.3c10 0 14.7 3.9 14.7 12.2v18.8c0 8.3-4.7 12.2-14.7 12.2zm11.5-11.3h7.1c2 0 2.9-.9 2.9-3V69.3c0-2-.9-2.9-2.9-2.9h-7.1zm41.9 11.3h-8.9c-1.5 0-2.1-.7-2.1-2.2V66.3c0-7.3 3.3-12.3 18.2-12.3s18.3 5 18.3 12.3v29.6a1.9 1.9 0 0 1-2.2 2.2h-9.1a1.9 1.9 0 0 1-2.2-2.2V87h-9.9v8.9c0 1.5-.6 2.2-2.1 2.2zm2.1-22.1h9.9v-7.7c0-1.6-.7-2.8-4.9-2.8s-5 1.2-5 2.8zm33.5 22.1c-1.5 0-2.1-.7-2.1-2.2V57.1c0-1.5.6-2.2 2.1-2.2h18.4c11 0 14.2 4.8 14.2 11.7v7.7c0 6.9-3.2 11.7-14.2 11.7h-6.9v9.9c0 1.5-.6 2.2-2.1 2.2zm11.4-22.9h5.4c2.3 0 2.8-1.4 2.8-3v-3.1c0-1.6-.5-3-2.8-3h-5.4zm38.2 22.9a1.9 1.9 0 0 1-2.2-2.2V66.5h-8.9c-1.5 0-2.1-.7-2.1-2.2v-7.2c0-1.5.6-2.2 2.1-2.2h31.8c1.5 0 2.1.7 2.1 2.2v7.2c0 1.5-.6 2.2-2.1 2.2h-8.9v29.4c0 1.5-.6 2.2-2.1 2.2zm38.8 0h-8.9c-1.5 0-2.1-.7-2.1-2.2V66.3c0-7.3 3.3-12.3 18.2-12.3s18.3 5 18.3 12.3v29.6a1.9 1.9 0 0 1-2.2 2.2h-9.1a1.9 1.9 0 0 1-2.2-2.2V87h-9.9v8.9c0 1.5-.6 2.2-2.1 2.2zm2.1-22.1h9.9v-7.7c0-1.6-.7-2.8-4.9-2.8s-5 1.2-5 2.8zm41.5 22.1a1.9 1.9 0 0 1-2.2-2.2V66.5h-8.8a1.9 1.9 0 0 1-2.2-2.2v-7.2a1.9 1.9 0 0 1 2.2-2.2h31.7a1.9 1.9 0 0 1 2.2 2.2v7.2a1.9 1.9 0 0 1-2.2 2.2h-8.8v29.4a1.9 1.9 0 0 1-2.2 2.2zm30.9 0a1.9 1.9 0 0 1-2.2-2.2V57.1a1.9 1.9 0 0 1 2.2-2.2h9.6c1.5 0 2.1.7 2.1 2.2v38.8c0 1.5-.6 2.2-2.1 2.2zm38.1.9c-15 0-18.7-4.9-18.7-12.2V66.3c0-7.3 3.7-12.3 18.7-12.3s18.6 5 18.6 12.3v20.5c0 7.3-3.6 12.2-18.6 12.2zm0-11.6c4.4 0 5-1.2 5-2.8V68.5c0-1.6-.6-2.8-5-2.8s-5.1 1.2-5.1 2.8v16.1c0 1.6.8 2.8 5.1 2.8zm28.4 10.7c-1.5 0-2.1-.7-2.1-2.2V57.1c0-1.5.6-2.2 2.1-2.2h6.3a3.9 3.9 0 0 1 3.5 1.7l11.7 13.3V57.1c0-1.5.6-2.2 2.1-2.2h9a1.9 1.9 0 0 1 2.2 2.2v38.8a1.9 1.9 0 0 1-2.2 2.2h-9c-1.5 0-2.1-.7-2.1-2.2v-7.3l-10.3-12.5v19.8a1.9 1.9 0 0 1-2.2 2.2z"/><path d="M11.1 98.1H2.3a1.9 1.9 0 0 1-2.2-2.2V66.3C.1 59 3.4 54 18.3 54s18.4 5 18.4 12.3v29.6a1.9 1.9 0 0 1-2.2 2.2h-9.1a1.9 1.9 0 0 1-2.2-2.2V87h-9.9v8.9a1.9 1.9 0 0 1-2.2 2.2zM13.3 76h9.9v-7.7c0-1.6-.7-2.8-4.9-2.8s-5 1.2-5 2.8zm33.5 22.1a1.9 1.9 0 0 1-2.2-2.2V57.1a1.9 1.9 0 0 1 2.2-2.2h20.3c10 0 14.7 3.9 14.7 12.2v18.8c0 8.3-4.7 12.2-14.7 12.2zm11.5-11.3h7.1c2 0 2.9-.9 2.9-3V69.3c0-2-.9-2.9-2.9-2.9h-7.1zm41.9 11.3h-8.9c-1.5 0-2.1-.7-2.1-2.2V66.3c0-7.3 3.3-12.3 18.2-12.3s18.3 5 18.3 12.3v29.6a1.9 1.9 0 0 1-2.2 2.2h-9.1a1.9 1.9 0 0 1-2.2-2.2V87h-9.9v8.9c0 1.5-.6 2.2-2.1 2.2zm2.1-22.1h9.9v-7.7c0-1.6-.7-2.8-4.9-2.8s-5 1.2-5 2.8zm33.5 22.1c-1.5 0-2.1-.7-2.1-2.2V57.1c0-1.5.6-2.2 2.1-2.2h18.4c11 0 14.2 4.8 14.2 11.7v7.7c0 6.9-3.2 11.7-14.2 11.7h-6.9v9.9c0 1.5-.6 2.2-2.1 2.2zm11.4-22.9h5.4c2.3 0 2.8-1.4 2.8-3v-3.1c0-1.6-.5-3-2.8-3h-5.4zm38.2 22.9a1.9 1.9 0 0 1-2.2-2.2V66.5h-8.9c-1.5 0-2.1-.7-2.1-2.2v-7.2c0-1.5.6-2.2 2.1-2.2h31.8c1.5 0 2.1.7 2.1 2.2v7.2c0 1.5-.6 2.2-2.1 2.2h-8.9v29.4c0 1.5-.6 2.2-2.1 2.2zm38.8 0h-8.9c-1.5 0-2.1-.7-2.1-2.2V66.3c0-7.3 3.3-12.3 18.2-12.3s18.3 5 18.3 12.3v29.6a1.9 1.9 0 0 1-2.2 2.2h-9.1a1.9 1.9 0 0 1-2.2-2.2V87h-9.9v8.9c0 1.5-.6 2.2-2.1 2.2zm2.1-22.1h9.9v-7.7c0-1.6-.7-2.8-4.9-2.8s-5 1.2-5 2.8zm41.5 22.1a1.9 1.9 0 0 1-2.2-2.2V66.5h-8.8a1.9 1.9 0 0 1-2.2-2.2v-7.2a1.9 1.9 0 0 1 2.2-2.2h31.7a1.9 1.9 0 0 1 2.2 2.2v7.2a1.9 1.9 0 0 1-2.2 2.2h-8.8v29.4a1.9 1.9 0 0 1-2.2 2.2zm30.9 0a1.9 1.9 0 0 1-2.2-2.2V57.1a1.9 1.9 0 0 1 2.2-2.2h9.6c1.5 0 2.1.7 2.1 2.2v38.8c0 1.5-.6 2.2-2.1 2.2zm38.1.9c-15 0-18.7-4.9-18.7-12.2V66.3c0-7.3 3.7-12.3 18.7-12.3s18.6 5 18.6 12.3v20.5c0 7.3-3.6 12.2-18.6 12.2zm0-11.6c4.4 0 5-1.2 5-2.8V68.5c0-1.6-.6-2.8-5-2.8s-5.1 1.2-5.1 2.8v16.1c0 1.6.8 2.8 5.1 2.8zm28.4 10.7c-1.5 0-2.1-.7-2.1-2.2V57.1c0-1.5.6-2.2 2.1-2.2h6.3a3.9 3.9 0 0 1 3.5 1.7l11.7 13.3V57.1c0-1.5.6-2.2 2.1-2.2h9a1.9 1.9 0 0 1 2.2 2.2v38.8a1.9 1.9 0 0 1-2.2 2.2h-9c-1.5 0-2.1-.7-2.1-2.2v-7.3l-10.3-12.5v19.8a1.9 1.9 0 0 1-2.2 2.2zm-234.5 32.3c-.6 0-.8-.3-.8-.9v-4.3c0-3.9 1.6-4.8 3.9-5.5l3.4-1c.5-.2.6-.4.6-1s-.1-.6-.6-.6h-5.5a.8.8 0 0 1-.9-.9v-3a.8.8 0 0 1 .9-.9h7.4c2.9 0 4.5 1.5 4.5 4.2v2.4c0 2.5-1.5 3.7-4 4.4l-3.4 1.1c-.5.1-.6.2-.6.7v.6h7.1a.8.8 0 0 1 .9.9v2.9a.8.8 0 0 1-.9.9zm23.3.4c-6.1 0-7.7-2.1-7.7-5.1v-8.6c0-3 1.6-5.2 7.7-5.2s7.7 2.2 7.7 5.2v8.6c0 3-1.5 5.1-7.7 5.1zm0-4.8c1.8 0 2-.5 2-1.2V118c0-.6-.2-1.1-2-1.1s-2 .5-2 1.1v6.8c0 .7.3 1.2 2 1.2zm11.3 4.4c-.7 0-1-.3-1-.9v-3c0-.6.3-.9 1-.9h2.8v-8.4h-2.3c-.7 0-.9-.3-.9-.9v-3.1c0-.6.2-.9.9-.9h7.3c.6 0 .8.3.8.9v12.4h2.5a.8.8 0 0 1 .9.9v3a.8.8 0 0 1-.9.9zm29.6-4c0 2.6-1.7 4.4-7.7 4.4s-7.8-1.8-7.8-4.4V124c0-2.4 1.2-3.6 2.7-3.9a2.6 2.6 0 0 1-1.5-2.7v-1.5c0-2.4 1.6-4 6.6-4s6.5 1.6 6.5 4v1.5c0 1.3-.3 2.2-1.4 2.7 1.5.3 2.6 1.5 2.6 3.9zm-7.7 0c1.8 0 2.2-.4 2.2-.9v-1.4c0-.5-.4-.8-2.2-.8s-2.2.3-2.2.8v1.4c0 .5.4.9 2.2.9zm0-7.1c1.4 0 1.5-.4 1.5-.9v-1.1c0-.5-.1-.9-1.5-.9s-1.6.4-1.6.9v1.1c0 .5.2.9 1.6.9zm9.9 3.8v-3.4a.8.8 0 0 1 .9-.9h6.8c.6 0 .9.2.9.9v3.4a.8.8 0 0 1-.9.9H198a.8.8 0 0 1-.9-.9zm11.5 7.3c-.7 0-.9-.3-.9-.9v-4.3c0-3.9 1.6-4.8 3.9-5.5l3.4-1c.5-.2.6-.4.6-1s-.1-.6-.6-.6h-5.5a.8.8 0 0 1-.9-.9v-3a.8.8 0 0 1 .9-.9h7.4c2.9 0 4.4 1.5 4.4 4.2v2.4c0 2.5-1.4 3.7-3.9 4.4l-3.4 1.1c-.5.1-.6.2-.6.7v.6h7.1c.7 0 .9.3.9.9v2.9c0 .6-.2.9-.9.9zm23.3.4c-6.2 0-7.7-2.1-7.7-5.1v-8.6c0-3 1.5-5.2 7.7-5.2s7.6 2.2 7.6 5.2v8.6c0 3-1.5 5.1-7.6 5.1zm0-4.8c1.7 0 2-.5 2-1.2V118c0-.6-.3-1.1-2-1.1s-2.1.5-2.1 1.1v6.8c0 .7.4 1.2 2.1 1.2zm11 4.4a.8.8 0 0 1-.9-.9v-4.3c0-3.9 1.6-4.8 3.9-5.5l3.4-1a.9.9 0 0 0 .7-1c0-.5-.2-.6-.7-.6h-5.5a.8.8 0 0 1-.9-.9v-3a.8.8 0 0 1 .9-.9h7.4c2.9 0 4.5 1.5 4.5 4.2v2.4c0 2.5-1.5 3.7-4 4.4l-3.4 1.1c-.5.1-.6.2-.6.7v.6h7.1c.7 0 .9.3.9.9v2.9c0 .6-.2.9-.9.9zm16.2 0a.8.8 0 0 1-.9-.9v-3a.8.8 0 0 1 .9-.9h2.8v-8.4h-2.3a.8.8 0 0 1-.9-.9v-3.1a.8.8 0 0 1 .9-.9h7.3a.8.8 0 0 1 .9.9v12.4h2.5c.6 0 .8.3.8.9v3c0 .6-.2.9-.8.9z"/></symbol></svg>