<svg xmlns="http://www.w3.org/2000/svg" width="1243" height="331.1" viewBox="0 0 1243 331.1"><path fill="#fff" d="M89.4 295.8c-61 0-89.4-23.6-89.4-74.1V108.3c0-50.6 28.4-74.2 89.4-74.2h90.9c9.1 0 13.1 4 13.1 13.1v44c0 9.1-4 13.1-13.1 13.1h-75.6c-15.3 0-22.2 5.8-22.2 18.1v86.9c0 12.4 5.5 17.8 16.7 17.8h35.3v-56.7c0-9.1 4-13.1 13.1-13.1h56.3c9.1 0 13.1 4 13.1 13.1v112.4c0 9-4 13-13.1 13zm185.1 0c-9.1 0-13.1-4-13.1-13V47.2c0-9.1 4-13.1 13.1-13.1h168.7c9.1 0 13.1 4 13.1 13.1v42.5c0 9.1-4 13.1-13.1 13.1H342.8v28h70.9c9.1 0 13.1 4 13.1 13.1v38.9c0 9.1-4 13.1-13.1 13.1h-70.9v31.2h100.4c9.1 0 13.1 4 13.1 13.1v42.6c0 9-4 13-13.1 13zm237.8 0c-9.1 0-13.1-4-13.1-13V47.2c0-9.1 4-13.1 13.1-13.1h37.8c9.4 0 15.2 2.5 21.4 9.8l70.6 80.7V47.2c0-9.1 4-13.1 13-13.1h54.6c9.1 0 13.1 4 13.1 13.1v235.6c0 9-4 13-13.1 13h-54.6c-9 0-13-4-13-13V238l-62.2-75.2v120c0 9-4 13-13.1 13zm268.6 0c-9 0-13-4-13-13V209c0-9.5 4-13.1 13-13.1h73.5c9.1 0 13.1 3.6 13.1 13.1v73.8c0 9-4 13-13.1 13zM1077.5 102c-25.3 0-29.6 7.2-29.6 16.9V165h59v-46.1c0-9.7-4.3-16.9-29.4-16.9z"/><path fill="#fff" d="M1211.9 0h-269a31 31 0 0 0-31 31v269a31 31 0 0 0 31 31.1h269A31.1 31.1 0 0 0 1243 300V31a31 31 0 0 0-31.1-31zm-25 283.7c0 8.9-3.9 12.8-12.8 12.8h-54.4c-8.9 0-12.8-3.9-12.8-12.8v-53.3h-59v53.3c0 8.9-4 12.8-12.9 12.8h-52.6c-8.9 0-12.8-3.9-12.8-12.8v-177c0-43.3 19.6-72.9 108.3-72.9s109 29.6 109 72.9z"/></svg>